<svg xmlns="http://www.w3.org/2000/svg" viewBox="0 0 482.79 56.79"><defs><style>.cls-1{fill:#2a3338;}.cls-2{fill:#29bbef;}</style></defs><g id="Layer_2" data-name="Layer 2"><g id="Layer_1-2" data-name="Layer 1"><path class="cls-1" d="M91.15,7.94c9.1,0,16.49,4.87,19.25,13.26H101c-1.94-3.93-5.46-5.87-9.86-5.87-7.16,0-12.26,5.23-12.26,13.56s5.1,13.55,12.26,13.55c4.4,0,7.92-1.93,9.86-5.92h9.45C107.64,45,100.25,49.78,91.15,49.78c-11.79,0-20.77-8.63-20.77-20.89S79.36,7.94,91.15,7.94Z"/><path class="cls-1" d="M141.19,32H123.64V49.43h-8.22v-41h8.22V25.31h17.55V8.47h8.21v41h-8.21Z"/><path class="cls-1" d="M171.7,8.47c9.86,0,14.78,5.69,14.78,12.55,0,5-2.75,10-9.33,11.8L187,49.43h-9.5l-9-16h-3.87v16h-8.22v-41Zm-.3,6.8h-6.86v12h6.86c4.58,0,6.63-2.4,6.63-6.1S176,15.27,171.4,15.27Z"/><path class="cls-1" d="M210.93,49.84a20.58,20.58,0,0,1-21-21c0-12.26,9.44-20.95,21-20.95s20.95,8.69,20.95,21A20.51,20.51,0,0,1,210.93,49.84Zm0-7.34c7.4,0,12.5-5.34,12.5-13.67s-5.1-13.56-12.5-13.56-12.55,5.23-12.55,13.56S203.48,42.5,210.93,42.5Z"/><path class="cls-1" d="M252.28,49.84c-8.16,0-14.44-4.46-14.44-11.68H245c.29,3.35,2.64,6.05,7.28,6.05s7.33-2.53,7.33-6c0-9.86-21.65-3.46-21.65-18.49,0-7.16,5.69-11.62,14-11.62,7.81,0,13.32,4.11,13.91,11.1H258.5c-.24-2.76-2.64-5.29-6.87-5.4-3.87-.12-6.87,1.76-6.87,5.69,0,9.21,21.6,3.46,21.6,18.37C266.36,44,261.37,49.84,252.28,49.84Z"/><path class="cls-1" d="M285.45,50c-9.21,0-16.19-6.58-16.19-16.73s7.27-16.66,16.49-16.66,16.49,6.51,16.49,16.66S294.72,50,285.45,50Zm0-5.81c5,0,9.92-3.58,9.92-10.92s-4.75-10.86-9.74-10.86-9.57,3.53-9.57,10.86S280.41,44.15,285.45,44.15Z"/><path class="cls-1" d="M306,6h6.69V49.43H306Z"/><path class="cls-1" d="M347.94,49.43h-6.69V45.56a12.07,12.07,0,0,1-9.57,4.34c-7.57,0-13.32-4.76-13.32-13.79v-19H325v18c0,5.93,3.23,9,8.1,9s8.16-3.05,8.16-9v-18h6.69Z"/><path class="cls-1" d="M354.1,22.55V9.05h6.75v8h7.86v5.46h-7.86v17.9c0,2.41.94,3.4,3.76,3.4h4.1v5.58h-5.28c-5.75,0-9.33-2.41-9.33-9Z"/><path class="cls-1" d="M372.82,8.53a4.26,4.26,0,1,1,8.51,0,4.26,4.26,0,1,1-8.51,0Zm.88,8.56h6.69V49.43H373.7Z"/><path class="cls-1" d="M401.2,50C392,50,385,43.38,385,33.23s7.27-16.66,16.49-16.66S418,23.08,418,33.23,410.48,50,401.2,50Zm0-5.81c5,0,9.92-3.58,9.92-10.92s-4.75-10.86-9.74-10.86-9.57,3.53-9.57,10.86S396.16,44.15,401.2,44.15Z"/><path class="cls-1" d="M445.55,31.35c0-5.92-3.23-9-8.1-9s-8.16,3.06-8.16,9V49.43H422.6V17.09h6.69v3.7a12.44,12.44,0,0,1,9.63-4.22c7.57,0,13.26,4.75,13.26,13.79V49.43h-6.63Z"/><path class="cls-1" d="M470.41,50c-7.75,0-13.21-4.58-13.5-10.45h6.92c.24,2.64,2.76,4.81,6.46,4.81,3.87,0,5.93-1.64,5.93-3.87,0-6.34-18.78-2.7-18.78-14.55,0-5.17,4.81-9.33,12.44-9.33,7.33,0,12.15,3.93,12.5,10.38h-6.69c-.24-2.81-2.41-4.75-6.05-4.75s-5.45,1.47-5.45,3.64c0,6.51,18.25,2.87,18.6,14.55C482.79,45.85,478,50,470.41,50Z"/><path class="cls-2" d="M40.62,5.51A11,11,0,0,0,23.14,3.39L33.59,21.48l8.26,14.31H58.11Zm21.11,37.2H24.33L16.2,56.79h35A11,11,0,0,0,61.73,42.71ZM27.09,24.06,19,10,1.47,40.27a11,11,0,0,0,6.92,16.2l7.94-13.76Z"/></g></g></svg>